<svg fill="none" height="140" viewBox="0 0 140 140" width="140" xmlns="http://www.w3.org/2000/svg"><path d="m97.3495 28h-54.699c-7.539 0-13.6505 6.1115-13.6505 13.6505v54.699c0 7.5385 6.1115 13.6505 13.6505 13.6505h54.699c7.5385 0 13.6505-6.112 13.6505-13.6505v-54.699c0-7.539-6.112-13.6505-13.6505-13.6505z" fill="#009eff" fill-opacity=".1"/><path d="m87.0915 87.8297-3.23-12.11c-.85-3.21-1.94-5.43-3.33-6.78-.4245-.444-.9331-.7992-1.4962-1.0447-.5632-.2455-1.1695-.3765-1.7838-.3853-.2649-.0015-.5294.0219-.79.07h-.07l-.35.1c-.423.1052-.8253.281-1.19.52-.2442.1485-.5241.228-.81.23-.2064-.0006-.4105-.0435-.5997-.126-.1892-.0826-.3594-.2031-.5003-.354-.3234-.3505-.6975-.6505-1.11-.89-.7127-.4179-1.5237-.6388-2.35-.64-.405.0033-.8081.0571-1.2.16-.5996.1574-1.1632.429-1.66.8-.2574.1904-.5697.2921-.89.29-.2259.0002-.4491-.0499-.6532-.1468s-.3841-.238-.5268-.4132c-.4415-.547-.9987-.9894-1.6315-1.2954-.6328-.3061-1.3255-.4681-2.0285-.4746-.4087-.0016-.8157.0522-1.21.16-.4597.1228-.8981.315-1.3.57-.2363.1498-.5102.2295-.79.23-.2013.0066-.402-.0274-.59-.1-.2187-.083-.4145-.2171-.5711-.391-.1565-.1739-.2693-.3827-.3289-.609l-3.04-11.58c-.268-.9971-.8568-1.8782-1.6756-2.5072s-1.8219-.9709-2.8544-.9728c-.4087-.0016-.8157.0522-1.21.16-1.1924.3216-2.2098 1.1005-2.8314 2.1677s-.7971 2.3364-.4886 3.5323l6.77 25.43c.0761.279.0693.5741-.0194.8493-.0888.2753-.2558.5187-.4806.7007-.2792.2341-.6359.3554-1 .34-.2329.0016-.4629-.0533-.67-.16-.668-.3328-1.4036-.5074-2.15-.51-.961.0114-1.8984.2996-2.7.83-1.0426.7203-1.7582 1.8236-1.9905 3.0694s.0375 2.5329.7505 3.5806l8.55 12.5003.06.09c.4941.851 1.0524 1.663 1.67 2.43 1.8186 2.253 4.1122 4.078 6.7172 5.343 2.605 1.266 5.4571 1.941 8.3528 1.977h.21c1.7082 0 3.409-.222 5.06-.66 1.0973-.297 2.1677-.685 3.2-1.16 2.6093-1.2 4.9185-2.966 6.76-5.17l.2-.24c1.9595-2.404 3.321-5.238 3.9729-8.2692.6519-3.0317.5755-6.1747-.2229-9.1711z" fill="#404041"/><g stroke="#009eff" stroke-linecap="round" stroke-miterlimit="10" stroke-width="2"><path d="m45.6594 45.0602-1.3-4.61"/><path d="m56.6992 50.6401 4.6-1.31"/><path d="m34.1797 57.0305 4.61-1.3"/><path d="m36.0703 46.5 4.18 2.33"/><path d="m54.4511 41.4697-2.33 4.19"/></g><path d="m59.3218 81.0595c.2059-.0203.4049-.0853.583-.1904.1781-.1052.3311-.2481.4483-.4186.1171-.1705.1956-.3645.23-.5685.0343-.204.0236-.413-.0313-.6125l-2.26-8.49c-.076-.3182-.0851-.6488-.0265-.9707.0585-.322.1833-.6282.3665-.8993.3619-.605.9415-1.0487 1.62-1.24.6285-.165 1.2967-.0746 1.8588.2514s.9724.8612 1.1412 1.4886l2.59 9.7c.0498.1813.1348.3511.2502.4995s.259.2726.4225.3655c.1634.0929.3436.1526.5302.1758s.3759.0093.5571-.0408c.3626-.1028.6703-.3437.8573-.6709.1869-.3271.2382-.7146.1427-1.0791l-1.72-6.56c-.0995-.6592.0503-1.3319.4201-1.8866s.9331-.9517 1.5799-1.1134c.6094-.1753 1.2633-.1035 1.82.2.5657.3246.9794.8605 1.15 1.49l2.08 7.83c.0904.33.2946.6174.5764.8113.2818.194.6232.2821.9636.2487.2006-.0283.3931-.0981.5653-.2048.1721-.1067.3202-.2481.4347-.4152.1179-.17.1969-.3638.2315-.5677.0345-.2039.0238-.413-.0315-.6123l-1.27-4.91c-.1948-.622-.1736-1.2915.06-1.9.1061-.2328.2654-.4374.4652-.5973.1998-.1598.4344-.2704.6848-.3227l.28-.08c2.57-.38 4.11 3.92 4.81 6.52l3.22 12.11c.7029 2.6564.7686 5.4411.1917 8.1276-.577 2.6866-1.7801 5.1989-3.5117 7.3329l-.18.22c-1.6363 1.949-3.6858 3.51-6 4.57-.9168.412-1.8668.747-2.84 1-1.5232.405-3.0939.603-4.67.59-2.5671-.025-5.0966-.62-7.4055-1.743-2.3088-1.122-4.3393-2.744-5.9445-4.747-.562-.701-1.0701-1.443-1.52-2.22l-.04-.06-8.6-12.5705c-.3756-.5571-.5191-1.2387-.4-1.9.0605-.3282.1853-.6411.3672-.9209.1819-.2797.4174-.5207.6928-.7091.2373-.1641.5012-.2859.78-.36.5071-.1365 1.0439-.1138 1.5376.0651s.9205.5053 1.2224.9349l4.59 6.71c.192.2794.4763.4821.8029.5725.3267.0904.6748.0627.983-.0783s.5569-.3861.7021-.6924c.1453-.3062.1779-.6539.092-.9818l-9.61-36.08c-.1653-.6271-.0763-1.2941.2477-1.856.324-.5618.8568-.973 1.4823-1.144.6285-.165 1.2967-.0746 1.8588.2514s.9724.8612 1.1412 1.4886l6.88 25.8c.087.334.2918.6253.5767.8201.2848.1948.6306.28.9733.2399z" fill="#fff"/></svg>