<svg fill="none" height="140" viewBox="0 0 140 140" width="140" xmlns="http://www.w3.org/2000/svg"><path d="m103.619 25h-54.699c-7.5389 0-13.6505 6.1115-13.6505 13.6505v54.699c0 7.5385 6.1116 13.6505 13.6505 13.6505h54.699c7.539 0 13.651-6.112 13.651-13.6505v-54.699c0-7.539-6.112-13.6505-13.651-13.6505z" fill="#009eff" fill-opacity=".1"/><path d="m77.1408 113.91c12.0619 0 21.84-9.778 21.84-21.8395 0-12.0619-9.7781-21.84-21.84-21.84s-21.84 9.7781-21.84 21.84c0 12.0615 9.7781 21.8395 21.84 21.8395z" fill="#009eff"/><path d="m52.6878 92.0802c.0043 3.724.8869 7.3945 2.5761 10.7138 1.6892 3.318 4.1373 6.192 7.1456 8.387 3.0082 2.195 6.4918 3.65 10.1678 4.246s7.4407.317 10.9885-.815 6.7786-3.085 9.43-5.7 4.6487-5.818 5.8297-9.35c1.1805-3.5318 1.5125-7.2923.9671-10.9762-.5452-3.6839-1.9515-7.1873-4.1048-10.2256-.2177-.2932-.5414-.4897-.902-.5476-.3605-.0579-.7294.0273-1.028.2376-.2913.219-.4881.5409-.55.9-.0508.3517.0351.7096.24 1 3.0415 4.2945 4.3598 9.5743 3.6939 14.7945-.6659 5.2201-3.2674 10.0003-7.2895 13.3933-4.0222 3.394-9.1718 5.153-14.4296 4.931-5.2577-.223-10.2403-2.411-13.9614-6.132s-5.9094-8.704-6.1319-13.9617 1.5371-10.4073 4.9306-14.4295c3.3934-4.0222 8.1733-6.6237 13.3934-7.2895 5.2201-.6659 10.5.6524 14.7945 3.6939.2977.2128.6673.2996 1.0287.2416.3613-.0581.6852-.2563.9013-.5516.2128-.2977.2996-.6674.2415-1.0287-.058-.3613-.2562-.6852-.5515-.9013-3.5446-2.5274-7.718-4.0274-12.0605-4.3348-4.3426-.3073-8.6856.5899-12.5509 2.5928-3.8652 2.003-7.1026 5.0339-9.3556 8.759-2.2529 3.725-3.434 7.9997-3.413 12.353z" fill="#404041"/><path d="m78.3683 102.81c3.91-.64 6.64-3.0998 6.64-5.9998 0-3.45-3.8-6.14-8.64-6.14-3.14 0-5.89-1.58-5.89-3.39s2.79-3.35 5.89-3.35 5.9 1.58 5.9 3.38c0 .366.1454.717.4042.9758s.6098.4042.9758.4042.717-.1454.9758-.4042.4042-.6098.4042-.9758c0-2.87-2.73-5.33-6.64-6-.1758-.0285-.3357-.1186-.4511-.2541-.1154-.1356-.1788-.3078-.1789-.4859v-2.15c.0162-.1904-.0072-.3821-.069-.563-.0617-.1809-.1603-.347-.2896-.4877-.1292-.1408-.2863-.2532-.4613-.3301s-.364-.1165-.5551-.1165-.3802.0396-.5551.1165c-.175.0769-.3321.1893-.4614.3301-.1292.1407-.2279.3068-.2896.4877s-.0852.3726-.0689.563v2.18c-.0001.1781-.0635.3503-.1789.4859-.1155.1355-.2754.2256-.4511.2541-3.91.64-6.64 3.1-6.64 6 0 3.45 3.8 6.15 8.65 6.15 3.11-.03 5.88 1.51 5.88 3.35s-2.75 3.3798-5.88 3.3798-5.89-1.5798-5.89-3.3798c0-.366-.1454-.717-.4042-.9758s-.6098-.4042-.9758-.4042-.717.1454-.9758.4042-.4042.6098-.4042.9758c0 2.87 2.73 5.3298 6.64 5.9998.1757.029.3356.119.4511.254.1154.136.1788.308.1789.486v2.18c-.0163.191.0072.382.0689.563s.1604.347.2896.488c.1293.141.2864.253.4614.33.1749.077.364.117.5551.117s.3801-.04.5551-.117.3321-.189.4613-.33c.1293-.141.2279-.307.2896-.488.0618-.181.0852-.372.069-.563v-2.21c-.0008-.175.0598-.345.1713-.48.1114-.135.2666-.227.4387-.26z" fill="#fff"/><g fill="#404041"><path d="m50.27 102.1h-23.77c-.1981-.002-.3873-.082-.5274-.222s-.22-.33-.2226-.528v-3.8898c.0026-.1981.0825-.3874.2226-.5275s.3293-.2199.5274-.2225h21.55c.366 0 .717-.1454.9758-.4042s.4042-.6098.4042-.9758-.1454-.717-.4042-.9758-.6098-.4042-.9758-.4042h-23.68c-.1807 0-.3597.0358-.5266.1052-.1668.0695-.3183.1713-.4457.2996-.1273.1283-.228.2805-.2963.4478-.0682.1674-.1027.3466-.1014.5274v8.1498c-.0013.181.0332.36.1014.528.0683.167.169.319.2963.447.1274.129.2789.23.4457.3.1669.069.3459.105.5266.105h25.9c.366 0 .717-.145.9758-.404s.4042-.61.4042-.976-.1454-.717-.4042-.976c-.2588-.258-.6098-.404-.9758-.404z"/><path d="m50.9306 77.79h-25.66c-.366 0-.717.1454-.9758.4042s-.4042.6098-.4042.9758v8.14c0 .366.1454.717.4042.9758s.6098.4042.9758.4042h3.13c.1989 0 .3897.0791.5304.2197.1406.1407.2196.3314.2196.5303v.13c0 .366.1454.717.4042.9758s.6098.4042.9758.4042.717-.1454.9758-.4042.4042-.6098.4042-.9758v-.13c.0026-.1981.0825-.3873.2226-.5274s.3293-.22.5274-.2226h15.89c.366 0 .717-.1454.9758-.4042s.4042-.6098.4042-.9758-.1454-.717-.4042-.9758-.6098-.4042-.9758-.4042h-21.17c-.0988.0014-.197-.0171-.2886-.0543s-.1748-.0924-.2447-.1623c-.0699-.07-.1251-.1532-.1623-.2448s-.0557-.1897-.0544-.2886v-3.88c0-.1989.079-.3896.2197-.5303.1406-.1406.3314-.2197.5303-.2197h23.55c.366 0 .717-.1454.9758-.4042s.4042-.6098.4042-.9758-.1454-.717-.4042-.9758-.6098-.4042-.9758-.4042z"/><path d="m78.8711 64.3901c.1837.0027.3662-.0314.5366-.1002.1704-.0687.3253-.1709.4557-.3003.1304-.1295.2337-.2837.3037-.4536s.1053-.3521.104-.5359v-8c0-.366-.1454-.717-.4042-.9758s-.6098-.4042-.9758-.4042h-3.78c-.366 0-.717.1454-.9758.4042s-.4042.6098-.4042.9758.1454.717.4042.9758.6098.4042.9758.4042h1.63c.1989 0 .3897.079.5303.2197.1407.1406.2197.3314.2197.5303v3.76c0 .1989-.079.3897-.2197.5303-.1406.1407-.3314.2197-.5303.2197h-50.24c-.3626 0-.7106.1426-.9688.3971s-.406.6004-.4112.9629v8.14c0 .366.1454.717.4042.9758s.6098.4042.9758.4042h1.88c.1989 0 .3897.079.5303.2197.1407.1406.2197.3314.2197.5303v.13c0 .366.1454.717.4042.9758s.6098.4042.9758.4042.717-.1454.9758-.4042.4042-.6098.4042-.9758v-.13c.0026-.1981.0824-.3874.2225-.5275.1401-.14.3294-.2199.5275-.2225h24.43c.366 0 .717-.1454.9758-.4042s.4042-.6098.4042-.9758-.1454-.717-.4042-.9758-.6098-.4042-.9758-.4042h-28.44c-.1989 0-.3897-.079-.5303-.2197-.1407-.1406-.2197-.3314-.2197-.5303v-3.87c0-.1989.079-.3897.2197-.5303.1406-.1407.3314-.2197.5303-.2197h40.47c.1362-.0005.2698.0366.3863.1072.1164.0705.2111.1719.2737.2928.1158.2222.2902.4084.5045.5384.2142.1299.4599.1986.7105.1986s.4963-.0687.7105-.1986c.2142-.13.3887-.3162.5045-.5384.0648-.1183.1602-.217.2764-.2857.1162-.0686.2487-.1046.3836-.1043z"/><path d="m69.7206 45.4697h-44.45c-.366 0-.717.1454-.9758.4042s-.4042.6098-.4042.9758v8.15c.0027.3643.1492.7127.4077.9694.2586.2566.6081.4006.9723.4006h6.89c.1989 0 .3897.079.5304.2197.1406.1406.2196.3314.2196.5303v.13c0 .366.1454.717.4042.9758s.6098.4042.9758.4042.717-.1454.9758-.4042.4042-.6098.4042-.9758v-.13c0-.1989.079-.3897.2197-.5303.1406-.1407.3314-.2197.5303-.2197h33.3c.3643 0 .7138-.144.9723-.4006.2585-.2567.4051-.6051.4077-.9694v-8.15c0-.366-.1454-.717-.4042-.9758s-.6098-.4042-.9758-.4042zm-1.37 7.39c-.0026.1981-.0824.3874-.2225.5275s-.3294.2199-.5275.2225h-40.22c-.1989 0-.3897-.079-.5303-.2196-.1407-.1407-.2197-.3315-.2197-.5304v-3.86c-.0013-.0988.0172-.197.0544-.2886s.0924-.1748.1623-.2447.1531-.1251.2447-.1623.1898-.0557.2886-.0544h40.22c.1989 0 .3897.079.5304.2197.1406.1406.2196.3314.2196.5303z"/></g></svg>