<svg fill="none" height="140" viewBox="0 0 140 140" width="140" xmlns="http://www.w3.org/2000/svg"><path d="m112.35 29h-54.6995c-7.539 0-13.6505 6.1115-13.6505 13.6505v54.699c0 7.5385 6.1115 13.6505 13.6505 13.6505h54.6995c7.538 0 13.65-6.112 13.65-13.6505v-54.699c0-7.539-6.112-13.6505-13.65-13.6505z" fill="#009eff" fill-opacity=".1"/><path d="m87.6567 59h-47.1362c-.8291.0024-1.6279.3109-2.2424.866s-1.0012 1.3176-1.0854 2.1403l-3.1753 31.3158c-.0477.4645.0029.9338.1484 1.3775.1455.4438.3827.8522.6964 1.1987.3136.3466.6967.6237 1.1244.8134s.8905.2877 1.3586.2878h5.5433c.3282.0073.6536-.0626.9497-.204.2961-.1415.5546-.3505.7546-.6102.2903-.408.6342-.7751 1.0225-1.0916 2.2514-1.8521 5.3819-1.7895 7.0323.2416.1599.1951.301.4048.4216.6263.1784.3174.439.5812.7546.7638s.6746.2773 1.0394.2741h29.6092c.8306-.0002 1.6316-.3077 2.248-.863.6164-.5554 1.0044-1.3191 1.0888-2.1433l3.1753-31.3158c.0448-.464-.0077-.9321-.1543-1.3747-.1465-.4425-.3839-.8498-.697-1.1957-.3131-.346-.695-.6231-1.1214-.8137s-.8879-.2905-1.3551-.2933z" fill="#009eff"/><g fill="#404041"><path d="m34.3414 99.1535h5.6892c.167-.001.3284.0598.4529.1706.1245.1107.2033.2636.2211.4289.1454 1.464.7563 2.843 1.7436 3.937.6752.739 1.5002 1.327 2.4205 1.725s1.9149.597 2.9182.584c1.8818-.04 3.7012-.679 5.1911-1.824s2.5717-2.736 3.0865-4.5383c.0395-.1402.1243-.2635.2413-.3508.117-.0874.2596-.1339.4058-.1324h36.8494c.165.0007.3242.0609.4481.1695.124.1086.2042.2581.2259.421.1478 1.466.7582 2.847 1.7436 3.946.6816.745 1.5154 1.337 2.4455 1.735.93.398 1.9349.594 2.9469.574 1.88-.042 3.698-.682 5.186-1.827s2.568-2.734 3.083-4.5353c.039-.1402.124-.2635.241-.3508.117-.0874.26-.1339.406-.1324h3.595c.964-.0098 1.891-.3714 2.605-1.0163s1.165-1.5281 1.269-2.4823l1.231-11.6323c.112-1.9089-.501-3.79-1.717-5.2703l-8.547-9.5026c-1.35-1.333-3.151-2.115-5.051-2.1922h-10.7312c-.0952.0013-.1895-.0181-.2764-.0567s-.1643-.0956-.2269-.167c-.0629-.0701-.1106-.1524-.14-.2417s-.0399-.1837-.0308-.2773l.5932-5.6192c.0562-.4655.0121-.9376-.1292-1.3848s-.3767-.8593-.6904-1.2089c-.3138-.3496-.6987-.6287-1.1292-.8187-.4305-.1899-.8967-.2865-1.3676-.2831h-50.9509c-.9644.0115-1.8914.3734-2.6064 1.0178-.7151.6443-1.169 1.5266-1.2763 2.4808l-.2517 2.3443c-.0176.1638-.0951.3154-.2178.426-.1226.1105-.2818.1723-.4472.1735h-7.1183c-.2502 0-.4903.099-.6673.2752-.1769.1762-.2764.4152-.2764.6644 0 .2491.0995.4881.2764.6643.177.1762.4171.2752.6673.2752h25.48c.2503 0 .4903-.099.6673-.2752s.2764-.4152.2764-.6643c0-.2492-.0994-.4882-.2764-.6644s-.417-.2752-.6673-.2752h-15.1082c-.0943.0008-.1876-.018-.2742-.0549-.0867-.037-.1647-.0914-.2291-.1598-.0609-.0711-.1067-.1537-.1345-.2429-.0278-.0893-.0371-.1832-.0273-.2761l.2157-2.0132c.0695-.4853.3084-.9307.675-1.258.3665-.3273.8372-.5155 1.3292-.5316h50.942c.2039-.0032.4063.0367.5937.1169.1874.0801.3557.1989.4938.3484.1392.1554.2427.3392.3033.5386.0605.1993.0766.4094.0472.6156l-3.8108 36.1852c-.0176.1661-.0961.32-.2204.4322-.1244.1123-.2858.175-.4536.1763h-29.4975c-.167.0009-.3284-.0599-.4529-.1706-.1245-.1108-.2033-.2636-.2211-.4289-.1473-1.4676-.7613-2.8501-1.7526-3.9461-.6721-.7439-1.4961-1.3364-2.4168-1.7376s-1.9169-.602-2.9219-.5888c-1.8794.0395-3.6967.6778-5.1849 1.8212s-2.569 2.7318-3.0837 4.5318c-.0405.1403-.1253.2639-.2419.3525-.1165.0887-.2586.1376-.4052.1396h-5.9768c-.2052.0027-.4088-.0372-.5976-.1174-.1888-.0801-.3587-.1986-.4989-.3479-.1358-.1576-.237-.3416-.2974-.5404-.0603-.1987-.0784-.4078-.0531-.6139l1.0965-10.4153c.0178-.1653.0966-.3181.2211-.4289.1246-.1107.286-.1715.453-.1706h7.6754c.2503 0 .4903-.099.6673-.2751.177-.1762.2764-.4152.2764-.6644s-.0994-.4881-.2764-.6643-.417-.2752-.6673-.2752h-26.3967c-.2503 0-.4903.099-.6673.2752s-.2764.4151-.2764.6643.0994.4882.2764.6644c.177.1761.417.2751.6673.2751h15.4677c.0927.0005.1844.0199.2694.0568s.1615.0907.2249.158c.066.068.1157.1501.1452.24.0296.0898.0384.1852.0256.279l-1.0875 10.0663c-.0563.4662-.012.939.1299 1.3869.1418.4478.378.8604.6927 1.2101.3148.3498.7008.6287 1.1324.8181s.8988.285 1.3704.2804zm73.5996-1.038c-.07.685-.256 1.3534-.548 1.9775-.532 1.176-1.388 2.178-2.467 2.891-1.08.712-2.341 1.106-3.636 1.136-.738.013-1.4712-.13-2.1499-.42-.6788-.29-1.2877-.72-1.7864-1.263-.6359-.7-1.0597-1.566-1.2223-2.4961-.0973-.5373-.1184-1.0854-.0629-1.6285.0682-.6863.2473-1.357.5303-1.9865.5325-1.1749 1.3882-2.1757 2.4682-2.8867 1.08-.7109 2.34-1.103 3.634-1.1308 1.219-.0344 2.41.3675 3.356 1.1325.947.7651 1.587 1.8427 1.803 3.0372.108.5388.135 1.0906.081 1.6374zm-16.0158-28.5795c.0197-.1645.0991-.3162.2232-.4266s.2844-.1719.4509-.1729h11.0547c1.364.0747 2.658.6296 3.649 1.5659l8.538 9.5026c.832 1.0893 1.249 2.4366 1.178 3.8029l-1.232 11.6322c-.071.4846-.31.929-.676 1.2559-.367.327-.836.5158-1.328.5337h-3.289c-.167.0009-.329-.0599-.453-.1706-.125-.1108-.204-.2636-.221-.4289-.148-1.4676-.762-2.85-1.753-3.946-.68-.7278-1.508-1.3035-2.428-1.6891s-1.912-.5724-2.911-.5479c-1.879.0395-3.6963.6778-5.1845 1.8212-1.4883 1.1434-2.5691 2.7318-3.0838 4.5318-.0405.1403-.1253.2639-.2418.3525-.1166.0887-.2587.1376-.4053.1396h-4.0624c-.095.0001-.1889-.0197-.2757-.0583-.0867-.0385-.1643-.0949-.2276-.1654-.0625-.0703-.1099-.1527-.1393-.2419-.0293-.0893-.0401-.1835-.0315-.2771zm-49.3511 28.7764c.0767-.6878.2649-1.3586.5572-1.9865.5325-1.1749 1.3882-2.1757 2.4682-2.8867 1.08-.7109 2.34-1.103 3.6344-1.1308.7416-.0117 1.477.1357 2.1562.4322.6793.2964 1.2865.7349 1.7804 1.2857.6166.6916 1.0275 1.5406 1.1864 2.4518.0989.5402.117 1.0919.0539 1.6374-.0714.6877-.2566 1.359-.5483 1.9865-.5349 1.175-1.3924 2.175-2.4737 2.886s-2.3424 1.103-3.6378 1.132c-.7385.013-1.4713-.13-2.1499-.42-.6787-.29-1.2877-.721-1.7867-1.263-.6004-.714-.9949-1.576-1.1415-2.4961-.1095-.5356-.1428-1.0838-.0988-1.6285z"/><path d="m107.12 81c.363-.0006.718-.1012 1.022-.2897.305-.1885.546-.4568.694-.7726.148-.3159.197-.6658.142-1.0078-.056-.342-.213-.6614-.455-.9198l-3.851-4.1122c-.605-.4989-1.353-.8118-2.147-.8979h-4.9533c-.5172.0108-1.0134.1978-1.3985.5272-.3852.3294-.634.7794-.7014 1.2685l-.4614 4.1123c-.0278.2511.0003.5051.0824.7452s.2164.461.3941.6483c.1778.1873.3949.3367.6373.4385s.5047.1537.7695.1523z"/><path d="m47.0558 70h-27.1116c-.2504 0-.4906.0527-.6677.1464-.177.0938-.2765.221-.2765.3536s.0995.2598.2765.3536c.1771.0937.4173.1464.6677.1464h27.1116c.2504 0 .4906-.0527.6677-.1464.177-.0938.2765-.221.2765-.3536s-.0995-.2598-.2765-.3536c-.1771-.0937-.4173-.1464-.6677-.1464z"/><path d="m54.1623 78c.2294-.0242.4422-.14.5971-.3249.1548-.1848.2406-.4255.2406-.6751s-.0858-.4903-.2406-.6751c-.1549-.1849-.3677-.3007-.5971-.3249h-30.3246c-.2294.0242-.4422.14-.5971.3249-.1548.1848-.2406.4255-.2406.6751s.0858.4903.2406.6751c.1549.1849.3677.3007.5971.3249z"/></g></svg>